<svg xmlns="http://www.w3.org/2000/svg" xmlns:xlink="http://www.w3.org/1999/xlink" version="1.1" x="0px" y="0px" viewBox="0 0 100 100" style="enable-background:new 0 0 100 100;" xml:space="preserve"><g><path fill="#FFFFFF" d="M84.5,29.1h-7h-2.3H24.8h-2.3h-7c-5.3,0-9.6,4.3-9.6,9.6v22.5c0,5.3,4.3,9.6,9.6,9.6h7h2.3h50.5h2.3h7   c5.3,0,9.6-4.3,9.6-9.6V38.7C94.1,33.4,89.8,29.1,84.5,29.1z M84.7,39.2c-1,0-1.8-0.8-1.8-1.8c0-1,0.8-1.8,1.8-1.8   c1,0,1.8,0.8,1.8,1.8C86.5,38.4,85.7,39.2,84.7,39.2z M86.5,43.7c0,1-0.8,1.8-1.8,1.8c-1,0-1.8-0.8-1.8-1.8c0-1,0.8-1.8,1.8-1.8   C85.7,41.9,86.5,42.7,86.5,43.7z M83.3,40.5c0,1-0.8,1.8-1.8,1.8c-1,0-1.8-0.8-1.8-1.8c0-1,0.8-1.8,1.8-1.8   C82.5,38.7,83.3,39.5,83.3,40.5z M84.7,48.6c2.2,0,3.9,1.7,3.9,3.9s-1.7,3.9-3.9,3.9c-2.2,0-3.9-1.7-3.9-3.9S82.5,48.6,84.7,48.6z    M87.8,42.3c-1,0-1.8-0.8-1.8-1.8c0-1,0.8-1.8,1.8-1.8c1,0,1.8,0.8,1.8,1.8C89.6,41.5,88.8,42.3,87.8,42.3z M75.2,68.6H24.8V31.4   h50.5V68.6z M15.3,43.4c-2.2,0-3.9-1.7-3.9-3.9c0-2.2,1.7-3.9,3.9-3.9s3.9,1.7,3.9,3.9C19.2,41.6,17.5,43.4,15.3,43.4z M17.1,48.3   c0,1-0.8,1.8-1.8,1.8s-1.8-0.8-1.8-1.8s0.8-1.8,1.8-1.8S17.1,47.3,17.1,48.3z M12.2,49.6c1,0,1.8,0.8,1.8,1.8s-0.8,1.8-1.8,1.8   s-1.8-0.8-1.8-1.8S11.2,49.6,12.2,49.6z M15.3,52.8c1,0,1.8,0.8,1.8,1.8s-0.8,1.8-1.8,1.8s-1.8-0.8-1.8-1.8S14.3,52.8,15.3,52.8z    M16.7,51.4c0-1,0.8-1.8,1.8-1.8s1.8,0.8,1.8,1.8s-0.8,1.8-1.8,1.8S16.7,52.4,16.7,51.4z"/><path fill="#FFFFFF" d="M73.6,33.1H26.4v33.8h47.1V33.1z M71.3,64.7H28.7V35.3h42.6V64.7z"/></g></svg>
